<?xml version="1.0" encoding="UTF-8"?>
<svg id="Layer_1" data-name="Layer 1" xmlns="http://www.w3.org/2000/svg" viewBox="0 0 556.04 142.19">
  <defs>
    <style>
      .cls-1 {
        fill: #f58ccb;
      }

      .cls-2 {
        fill: #7ddeff;
      }

      .cls-3 {
        fill: #343a40;
      }

      .cls-4 {
        fill: #005eeb;
      }

      .cls-5 {
        fill: #c3e251;
      }

      .cls-6 {
        fill: #ff5c22;
      }

      .cls-7 {
        fill: #9b5de5;
      }
    </style>
  </defs>
  <g>
    <path class="cls-3" d="M197.16,49.67c-2.58-1.36-5.6-2.04-9.04-2.04h-19.99v46.39h12.58v-13.76h6.97c3.53,0,6.62-.66,9.28-1.98,2.66-1.32,4.72-3.19,6.2-5.6,1.47-2.42,2.21-5.29,2.21-8.61s-.72-6.18-2.16-8.65c-1.44-2.47-3.46-4.39-6.04-5.74ZM191.39,67.46c-.56.96-1.37,1.7-2.43,2.23-1.06.53-2.33.79-3.83.79h-4.42v-12.76h4.42c1.49,0,2.77.25,3.83.75,1.06.5,1.87,1.22,2.43,2.16.56.94.84,2.09.84,3.44s-.28,2.44-.84,3.39Z"/>
    <path class="cls-3" d="M289.95,47.63h-12.98v11.77c-.25-.56-.52-1.1-.81-1.62-2-3.55-4.71-6.23-8.11-8.05-3.4-1.82-7.21-2.72-11.43-2.72s-8.03.91-11.44,2.72c-2.63,1.4-4.83,3.32-6.62,5.75v-7.85h-6.8c-13.54,0-24.51,10.98-24.51,24.51v21.87h12.98v-35.19h16.32c-1.63,3.35-2.46,7.36-2.46,12.03,0,5.13,1,9.46,2.99,13s4.7,6.22,8.11,8.05c3.41,1.83,7.23,2.74,11.44,2.74s8.02-.91,11.43-2.72c3.4-1.82,6.11-4.49,8.11-8.03,1.02-1.8,1.77-3.81,2.27-6.02,3.42,9.42,12.45,16.15,23.05,16.15h6.8v-11.19h-18.34v-35.19ZM265.12,77.86c-.73,1.91-1.8,3.36-3.22,4.34-1.42.99-3.18,1.48-5.28,1.48s-3.82-.49-5.25-1.48c-1.42-.99-2.5-2.43-3.24-4.34-.74-1.91-1.11-4.24-1.11-7s.37-5.13,1.11-7.05c.74-1.92,1.82-3.37,3.24-4.36,1.42-.99,3.17-1.48,5.25-1.48s3.85.49,5.28,1.48c1.42.99,2.5,2.44,3.22,4.36.73,1.92,1.09,4.27,1.09,7.05s-.36,5.1-1.09,7Z"/>
    <path class="cls-3" d="M449.05,47.63h-12.98v21.87c0,13.54,10.98,24.51,24.51,24.51h6.8v-11.19h-18.34v-35.19Z"/>
    <path class="cls-3" d="M380.48,77.08c-.15,1-.43,1.9-.86,2.71-.43.81-.98,1.5-1.67,2.09-.68.58-1.48,1.03-2.4,1.34-.91.31-1.95.47-3.11.47-2.05,0-3.8-.48-5.25-1.43-1.44-.95-2.55-2.39-3.32-4.3-.77-1.91-1.15-4.28-1.15-7.1s.37-5.01,1.12-6.93c.75-1.92,1.85-3.39,3.32-4.42s3.24-1.54,5.34-1.54c1.16,0,2.21.15,3.13.47.92.31,1.72.76,2.38,1.34.66.58,1.2,1.28,1.6,2.09.4.81.67,1.71.79,2.71h12.76c-.29-2.8-1.01-5.29-2.15-7.47-1.14-2.18-2.64-4.02-4.48-5.51-1.85-1.49-3.99-2.63-6.43-3.41-2.44-.78-5.1-1.17-7.99-1.17-4.15,0-7.92.91-11.3,2.72-3.38,1.82-6.07,4.5-8.06,8.05-.47.84-.89,1.73-1.25,2.67-.36-.93-.78-1.82-1.25-2.67-2-3.55-4.71-6.23-8.11-8.05-3.4-1.82-7.21-2.72-11.43-2.72s-8.03.91-11.44,2.72c-3.41,1.82-6.12,4.5-8.11,8.05-1.99,3.55-2.99,7.91-2.99,13.07s1,9.46,2.99,13,4.7,6.22,8.11,8.05c3.41,1.83,7.23,2.74,11.44,2.74s8.02-.91,11.43-2.72c3.4-1.82,6.11-4.49,8.11-8.03.47-.83.88-1.72,1.24-2.64.35.91.75,1.78,1.21,2.61,1.96,3.54,4.63,6.22,8,8.05,3.37,1.83,7.18,2.74,11.41,2.74,3.4,0,6.39-.53,8.95-1.6,2.56-1.07,4.72-2.47,6.48-4.22,1.75-1.74,3.1-3.64,4.05-5.7.94-2.06,1.49-4.07,1.63-6.04h-12.76ZM339.24,77.86c-.73,1.91-1.8,3.36-3.22,4.34-1.42.99-3.18,1.48-5.28,1.48s-3.83-.49-5.25-1.48c-1.42-.99-2.5-2.43-3.24-4.34-.74-1.91-1.11-4.24-1.11-7s.37-5.13,1.11-7.05c.74-1.92,1.82-3.37,3.24-4.36,1.42-.99,3.17-1.48,5.25-1.48s3.85.49,5.28,1.48c1.42.99,2.5,2.44,3.22,4.36.73,1.92,1.09,4.27,1.09,7.05s-.36,5.1-1.09,7Z"/>
    <path class="cls-3" d="M406.86,47.63l-15.04,46.39h14.07l2.54-8.9h14.28l2.67,8.9h14.26l-15.6-46.39h-17.19ZM419.91,75.71h-8.79c1.09-3.81,2.07-7.75,2.94-11.85.43-2.01.84-3.99,1.26-5.98.46,1.99.93,3.98,1.41,5.98.99,4.09,2.05,8.04,3.18,11.85Z"/>
    <rect class="cls-3" x="470.8" y="47.63" width="12.58" height="46.39"/>
    <path class="cls-3" d="M504.63,83.93c-.78.01-1.56.06-2.34.09.39-.43.8-.85,1.19-1.27,1.73-1.89,3.31-3.78,4.72-5.67l16.81-22.48v-6.97h-37.86v10.15h14.2c2.22,0,4.44-.02,6.66-.06.58-.01,1.17-.05,1.75-.07-.32.34-.64.68-.96,1.02-1.67,1.82-3.18,3.63-4.53,5.43l-17.18,22.94v6.97h37.86v-10.15h-13.14c-2.39,0-4.78.02-7.18.06Z"/>
    <path class="cls-3" d="M546.92,47.63c-12.38,0-22.4,10.04-22.4,22.4v1.59c0,12.36,10.02,22.4,22.4,22.4h9.1v-11.2h-18.32v-24h18.32v-11.18h-9.1Z"/>
    <rect class="cls-3" x="544.79" y="65.24" width="11.23" height="11.18"/>
  </g>
  <g>
    <path class="cls-7" d="M63.99,91.74c-11.08,6.4-17.91,18.22-17.91,31.02v1.52c0,10.24,8.61,18.48,19,17.87,9.58-.56,16.82-8.97,16.82-18.56v-42.02c0-.08-.08-.12-.15-.09l-17.75,10.26h0Z"/>
    <path class="cls-5" d="M64.15,50.3c-.07.04-.07.13,0,.17l17.75,10.26h0c11.09,6.4,24.75,6.4,35.83,0l1.31-.76c8.56-4.94,11.5-15.9,6.56-24.46-3.31-5.75-9.32-8.96-15.52-8.96-3.06,0-6.13.77-8.96,2.4l-19.23,11.09-17.75,10.26Z"/>
    <path class="cls-1" d="M2.4,106.62c4.94,8.57,15.9,11.52,24.46,6.56l19.23-11.09,17.77-10.26c.07-.04.07-.13,0-.17l-17.77-10.26h0c-11.08-6.39-24.72-6.39-35.80,0l-1.33.77c-8.57,4.94-11.5,15.9-6.56,24.46Z"/>
    <path class="cls-6" d="M8.96,59.96l19.23,11.11,17.75,10.24c.07.04.15,0,.15-.09v-20.5c0-12.8-6.83-24.63-17.92-31.02l-1.31-.76c-8.56-4.94-19.51-2.02-24.46,6.56-4.94,8.56-2.02,19.51,6.56,24.46Z"/>
    <path class="cls-2" d="M81.9,60.9v20.5c0,12.8,6.83,24.63,17.92,31.02l1.31.76c8.57,4.96,19.53,2.02,24.47-6.56,1.63-2.81,2.4-5.88,2.4-8.92,0-6.19-3.21-12.23-8.96-15.53l-19.23-11.09-17.77-10.26c-.07-.04-.15,0-.15.09Z"/>
    <path class="cls-4" d="M63.97,0C59.03,0,54.57,2,51.32,5.25c-3.25,3.23-5.25,7.71-5.25,12.65v42.66c0,.08.1.12.15.08l17.75-10.25h.02c11.05-6.38,17.86-18.19,17.86-30.97v-1.52C81.85,8.02,73.86,0,63.97,0Z"/>
  </g>
</svg>
